<svg width="226" height="56" viewBox="0 0 226 56" fill="none" xmlns="http://www.w3.org/2000/svg">
<path d="M9.73779 13.4141L24.4761 0.422363H28.1128L14.834 12.0981L30.1704 36H24.0454L11.0059 15.5195L9.73779 16.644V36H4.49805V0.422363H9.73779V13.4141ZM61.6328 36H56.106L54.144 31.3823H34.6924L32.7783 36H29.8833L42.9229 4.99219L41.0088 0.422363H46.6074L61.6328 36ZM35.6733 29.0376H53.1631L44.3345 8.36572L35.6733 29.0376ZM87.8794 0.422363V2.76709H71.3706V13.5576H87.377V15.9023H71.3706V36H66.1309V0.422363H87.8794ZM116.447 0.422363V2.76709H99.938V13.5576H115.944V15.9023H99.938V36H94.6982V0.422363H116.447ZM145.038 0.422363V2.76709H128.505V13.5576H144.536V15.9023H128.505V33.6553H145.038V36H123.266V0.422363H145.038ZM173.988 0.422363V2.76709H157.456V13.5576H173.486V15.9023H157.456V33.6553H173.988V36H152.216V0.422363H173.988ZM202.938 0.422363V2.76709H186.406V13.5576H202.436V15.9023H186.406V33.6553H202.938V36H181.166V0.422363H202.938Z" fill="#111111"/>
<circle cx="220" cy="30" r="6" fill="#111111"/>
</svg>
